<svg width="375" height="102" viewBox="0 0 375 102" fill="none" xmlns="http://www.w3.org/2000/svg">
  <g transform="rotate(180 187.5 51)">
    <path d="M530 88.1008L515.146 92.3045C500.292 96.351 470.583 104.994 440.875 100.672C411.167 96.351 381.458 79.8505 351.75 65.0395C322.042 50.3855 292.333 37.8137 262.625 42.0175C232.917 46.064 203.208 67.2788 173.5 67.161C143.792 67.2788 114.083 46.0639 84.375 52.4677C54.667 58.6357 24.958 92.4223 -4.75 88.1007C-34.458 83.7792 -64.167 42.1353 -93.875 33.6101C-123.583 25.242 -153.292 50.3855 -168.146 62.9572L-183 75.5289L-183 0.0984704L-168.146 0.0984718C-153.292 0.0984731 -123.583 0.0984757 -93.875 0.0984783C-64.167 0.098481 -34.458 0.0984836 -4.74999 0.0984862C24.958 0.0984889 54.667 0.0984915 84.375 0.0984941C114.083 0.0984968 143.792 0.0984994 173.5 0.098502C203.208 0.0985047 232.917 0.0985073 262.625 0.0985099C292.333 0.0985126 322.042 0.0985152 351.75 0.0985178C381.458 0.0985205 411.167 0.0985231 440.875 0.0985257C470.583 0.0985284 500.292 0.098531 515.146 0.0985323L530 0.0985336L530 88.1008Z" fill="#204397"/>
  </g>
</svg>
