<svg width="24" height="22" viewBox="0 0 24 22" fill="none" xmlns="http://www.w3.org/2000/svg">
<path d="M1 11.8197V13.7521C1 18.6568 3.2 20.6186 8.7 20.6186H15.3C20.8 20.6186 23 18.6568 23 13.7521V7.86651C23 2.96186 20.8 1 15.3 1H8.7C3.2 1 1 2.96186 1 7.86651" stroke="#9EA9C6" stroke-width="2" stroke-linecap="round" stroke-linejoin="round"/>
<path d="M11.9994 14.2426C14.1257 14.2426 15.8494 12.7055 15.8494 10.8094C15.8494 8.91322 14.1257 7.3761 11.9994 7.3761C9.87311 7.3761 8.14941 8.91322 8.14941 10.8094C8.14941 12.7055 9.87311 14.2426 11.9994 14.2426Z" stroke="#9EA9C6" stroke-width="2" stroke-linecap="round" stroke-linejoin="round"/>
<path d="M18.1997 5.90466H18.2129" stroke="#9EA9C6" stroke-width="2" stroke-linecap="round" stroke-linejoin="round"/>
</svg>
